<svg id="Слой_1" data-name="Слой 1" xmlns="http://www.w3.org/2000/svg" width="46" height="46" viewBox="0 0 46 46">
  <defs>
    <style>
      .cls-1 {
        fill: #f9a03f;
      }

      .cls-2 {
        fill: #201e1f;
      }

      .cls-3 {
        fill: #50b2c0;
      }
    </style>
  </defs>
  <g>
    <circle class="cls-1" cx="23" cy="23" r="21.5"/>
    <path class="cls-2" d="M23,3A20,20,0,1,1,3,23,20,20,0,0,1,23,3m0-3A23,23,0,1,0,46,23,23,23,0,0,0,23,0Z"/>
  </g>
  <circle class="cls-3" cx="23" cy="17" r="5"/>
  <path class="cls-3" d="M22,43q-.55,0-1.11-.09C21.23,42.91,21.59,43,22,43Z"/>
  <path class="cls-3" d="M32,29.5V40.86A19.8,19.8,0,0,1,24,43c-.34,0-.69,0-1,0s-.69,0-1,0a19.8,19.8,0,0,1-8-2.11V29.5c0-3,3.08-5.5,6.84-5.5h4.32C28.92,24,32,26.48,32,29.5Z"/>
</svg>
