<svg id="Слой_1" data-name="Слой 1" xmlns="http://www.w3.org/2000/svg" width="44" height="29" viewBox="0 0 44 29">
  <defs>
    <style>
      .cls-1 {
        fill: #f9a03f;
      }

      .cls-2 {
        fill: #201e1f;
      }

      .cls-3 {
        fill: #50b2c0;
      }
    </style>
  </defs>
  <g>
    <rect class="cls-1" x="0.5" y="0.5" width="43" height="28" rx="4.43"/>
    <path class="cls-2" d="M39.07,1A3.93,3.93,0,0,1,43,4.93V24.07A3.93,3.93,0,0,1,39.07,28H4.93A3.93,3.93,0,0,1,1,24.07V4.93A3.93,3.93,0,0,1,4.93,1H39.07m0-1H4.93A5,5,0,0,0,0,4.93V24.07A5,5,0,0,0,4.93,29H39.07A5,5,0,0,0,44,24.07V4.93A5,5,0,0,0,39.07,0Z"/>
  </g>
  <g>
    <circle class="cls-3" cx="31.5" cy="22" r="3"/>
    <path class="cls-3" d="M31.5,19.5A2.5,2.5,0,1,1,29,22a2.5,2.5,0,0,1,2.5-2.5m0-1A3.5,3.5,0,1,0,35,22a3.5,3.5,0,0,0-3.5-3.5Z"/>
  </g>
  <g>
    <circle class="cls-3" cx="36.5" cy="22" r="3"/>
    <path class="cls-3" d="M36.5,19.5A2.5,2.5,0,1,1,34,22a2.5,2.5,0,0,1,2.5-2.5m0-1A3.5,3.5,0,1,0,40,22a3.5,3.5,0,0,0-3.5-3.5Z"/>
  </g>
  <g>
    <rect class="cls-2" x="0.5" y="6" width="43" height="2" rx="0.23"/>
    <path class="cls-2" d="M43,6.5v1H1v-1H43m.27-1H.73A.73.73,0,0,0,0,6.23V7.77a.73.73,0,0,0,.73.73H43.27A.73.73,0,0,0,44,7.77V6.23a.73.73,0,0,0-.73-.73Z"/>
  </g>
  <g>
    <path class="cls-3" d="M5.5,18a1,1,0,0,1,0-2h12a1,1,0,0,1,0,2Z"/>
    <path class="cls-3" d="M17.5,16.5a.5.5,0,0,1,0,1H5.5a.5.5,0,0,1,0-1h12m0-1H5.5a1.5,1.5,0,0,0,0,3h12a1.5,1.5,0,0,0,0-3Z"/>
  </g>
  <g>
    <path class="cls-3" d="M5.5,23a1,1,0,0,1,0-2h7a1,1,0,0,1,0,2Z"/>
    <path class="cls-3" d="M12.5,21.5a.5.5,0,0,1,0,1h-7a.5.5,0,0,1,0-1h7m0-1h-7a1.5,1.5,0,0,0,0,3h7a1.5,1.5,0,0,0,0-3Z"/>
  </g>
</svg>
