<svg id="Слой_1" data-name="Слой 1" xmlns="http://www.w3.org/2000/svg" width="30" height="20" viewBox="0 0 30 20">
  <defs>
    <style>
      .cls-1 {
        fill: #f9a03f;
      }
    </style>
  </defs>
  <path class="cls-1" d="M30,1.94V4H0V1.94A1.94,1.94,0,0,1,1.94,0H28.06A1.94,1.94,0,0,1,30,1.94Z"/>
  <path class="cls-1" d="M0,7V18.06A1.94,1.94,0,0,0,1.94,20H28.06A1.94,1.94,0,0,0,30,18.06V7ZM24,17a2,2,0,0,1-1.5-.69A2,2,0,0,1,21,17a2,2,0,0,1,0-4,2,2,0,0,1,1.5.69A2,2,0,0,1,24,13a2,2,0,0,1,0,4Z"/>
</svg>
