<svg id="Слой_1" data-name="Слой 1" xmlns="http://www.w3.org/2000/svg" width="38.5" height="49.36" viewBox="0 0 38.5 49.36">
  <defs>
    <style>
      .cls-1 {
        fill: #f9a03f;
      }
    </style>
  </defs>
  <path class="cls-1" d="M38,27.77c-1.64-6.7-7.37-11.48-10.24-13.87-3.62-3-6.38-4.18-7.31-7.7-.88-3.34.64-5.84,0-6.17-1.14-.57-7.76,6.31-8.78,15.41C11,22,13.48,26.73,11.7,27.77c-1.38.81-4.26-1.26-5.84-3.08-2.13-2.45-2.06-4.62-2.93-4.63-1.38,0-3,5.5-2.92,10.79a19.77,19.77,0,0,0,1.46,7.7c3.11,7.11,11.49,11.13,19,10.79,1.46-.07,11.62-.69,16.08-9.24A18.82,18.82,0,0,0,38,27.77ZM23.7,44a4.94,4.94,0,0,1-4.13,2.37,5.14,5.14,0,0,1-4.89-2.77,5.06,5.06,0,0,1-.37-2c0-1.35.39-2.77.75-2.77s.2.56.75,1.19c.41.47,1.15,1,1.5.79s-.19-1.48,0-3.16c.26-2.34,2-4.11,2.26-4s-.23.73,0,1.58.94,1.2,1.87,2a7.2,7.2,0,0,1,2.63,3.56A4.85,4.85,0,0,1,23.7,44Z"/>
</svg>
