<svg id="Слой_1" data-name="Слой 1" xmlns="http://www.w3.org/2000/svg" width="30" height="35" viewBox="0 0 30 35">
  <defs>
    <style>
      .cls-1 {
        fill: #f9a03f;
      }
    </style>
  </defs>
  <path class="cls-1" d="M28,0H2A2,2,0,0,0,0,2V33a2,2,0,0,0,2,2H28a2,2,0,0,0,2-2V2A2,2,0,0,0,28,0ZM25.5,30.5H4.5a1.5,1.5,0,0,1,0-3h21a1.5,1.5,0,0,1,0,3Zm0-6H4.5a1.5,1.5,0,0,1,0-3h21a1.5,1.5,0,0,1,0,3Zm0-6H4.5a1.5,1.5,0,0,1,0-3h21a1.5,1.5,0,0,1,0,3Zm0-6H4.5a1.5,1.5,0,0,1,0-3h21a1.5,1.5,0,0,1,0,3Zm0-6H4.5a1.5,1.5,0,0,1,0-3h21a1.5,1.5,0,0,1,0,3Z"/>
</svg>
