<svg id="Слой_1" data-name="Слой 1" xmlns="http://www.w3.org/2000/svg" width="32" height="41" viewBox="0 0 32 41">
  <defs>
    <style>
      .cls-1 {
        fill: #f9a03f;
      }

      .cls-2 {
        fill: #50b2c0;
      }
    </style>
  </defs>
  <g>
    <path class="cls-1" d="M5.27.5H26.73A4.77,4.77,0,0,1,31.5,5.27V35.73a4.77,4.77,0,0,1-4.77,4.77H5.28A4.78,4.78,0,0,1,.5,35.72V5.27A4.77,4.77,0,0,1,5.27.5Z"/>
    <path d="M26.73,1A4.28,4.28,0,0,1,31,5.27V35.73A4.28,4.28,0,0,1,26.73,40H5.27A4.28,4.28,0,0,1,1,35.73V5.27A4.28,4.28,0,0,1,5.27,1H26.73m0-1H5.27A5.28,5.28,0,0,0,0,5.27V35.73A5.28,5.28,0,0,0,5.27,41H26.73A5.28,5.28,0,0,0,32,35.73V5.27A5.28,5.28,0,0,0,26.73,0Z"/>
  </g>
  <g>
    <path class="cls-2" d="M5.5,6.5a1,1,0,0,1,0-2h3a1,1,0,0,1,0,2Z"/>
    <path class="cls-2" d="M8.5,5a.5.5,0,0,1,0,1h-3a.5.5,0,0,1,0-1h3m0-1h-3a1.5,1.5,0,0,0,0,3h3a1.5,1.5,0,0,0,0-3Z"/>
  </g>
  <g>
    <path class="cls-2" d="M12.5,6.5a1,1,0,0,1,0-2h14a1,1,0,0,1,0,2Z"/>
    <path class="cls-2" d="M26.5,5a.5.5,0,0,1,0,1h-14a.5.5,0,0,1,0-1h14m0-1h-14a1.5,1.5,0,0,0,0,3h14a1.5,1.5,0,0,0,0-3Z"/>
  </g>
  <g>
    <path class="cls-2" d="M5.5,11.5a1,1,0,0,1,0-2h11a1,1,0,0,1,0,2Z"/>
    <path class="cls-2" d="M16.5,10a.5.5,0,0,1,0,1H5.5a.5.5,0,0,1,0-1h11m0-1H5.5a1.5,1.5,0,0,0,0,3h11a1.5,1.5,0,0,0,0-3Z"/>
  </g>
  <g>
    <path class="cls-2" d="M20.5,11.5a1,1,0,0,1,0-2h6a1,1,0,0,1,0,2Z"/>
    <path class="cls-2" d="M26.5,10a.5.5,0,0,1,0,1h-6a.5.5,0,0,1,0-1h6m0-1h-6a1.5,1.5,0,0,0,0,3h6a1.5,1.5,0,0,0,0-3Z"/>
  </g>
  <g>
    <path class="cls-2" d="M5.5,16.5a1,1,0,0,1,0-2h15a1,1,0,0,1,0,2Z"/>
    <path class="cls-2" d="M20.5,15a.5.5,0,0,1,0,1H5.5a.5.5,0,0,1,0-1h15m0-1H5.5a1.5,1.5,0,0,0,0,3h15a1.5,1.5,0,0,0,0-3Z"/>
  </g>
  <g>
    <path class="cls-2" d="M24.5,16.5a1,1,0,0,1,0-2h2a1,1,0,0,1,0,2Z"/>
    <path class="cls-2" d="M26.5,15a.5.5,0,0,1,0,1h-2a.5.5,0,0,1,0-1h2m0-1h-2a1.5,1.5,0,0,0,0,3h2a1.5,1.5,0,0,0,0-3Z"/>
  </g>
  <g>
    <path class="cls-2" d="M5.5,21.5a1,1,0,0,1,0-2h6a1,1,0,0,1,0,2Z"/>
    <path class="cls-2" d="M11.5,20a.5.5,0,0,1,0,1h-6a.5.5,0,0,1,0-1h6m0-1h-6a1.5,1.5,0,0,0,0,3h6a1.5,1.5,0,0,0,0-3Z"/>
  </g>
  <g>
    <path class="cls-2" d="M15.5,21.5a1,1,0,0,1,0-2h11a1,1,0,0,1,0,2Z"/>
    <path class="cls-2" d="M26.5,20a.5.5,0,0,1,0,1h-11a.5.5,0,0,1,0-1h11m0-1h-11a1.5,1.5,0,0,0,0,3h11a1.5,1.5,0,0,0,0-3Z"/>
  </g>
  <g>
    <path class="cls-2" d="M5.5,26.5a1,1,0,0,1,0-2h11a1,1,0,0,1,0,2Z"/>
    <path class="cls-2" d="M16.5,25a.5.5,0,0,1,0,1H5.5a.5.5,0,0,1,0-1h11m0-1H5.5a1.5,1.5,0,0,0,0,3h11a1.5,1.5,0,0,0,0-3Z"/>
  </g>
  <g>
    <path class="cls-2" d="M5.5,31.5a1,1,0,0,1,0-2h9a1,1,0,0,1,0,2Z"/>
    <path class="cls-2" d="M14.5,30a.5.5,0,0,1,0,1h-9a.5.5,0,0,1,0-1h9m0-1h-9a1.5,1.5,0,0,0,0,3h9a1.5,1.5,0,0,0,0-3Z"/>
  </g>
  <g>
    <path class="cls-2" d="M5.5,36.5a1,1,0,0,1,0-2h14a1,1,0,0,1,0,2Z"/>
    <path class="cls-2" d="M19.5,35a.5.5,0,0,1,0,1H5.5a.5.5,0,0,1,0-1h14m0-1H5.5a1.5,1.5,0,0,0,0,3h14a1.5,1.5,0,0,0,0-3Z"/>
  </g>
  <g>
    <path class="cls-2" d="M23.5,36.5a1,1,0,0,1,0-2h3a1,1,0,0,1,0,2Z"/>
    <path class="cls-2" d="M26.5,35a.5.5,0,0,1,0,1h-3a.5.5,0,0,1,0-1h3m0-1h-3a1.5,1.5,0,0,0,0,3h3a1.5,1.5,0,0,0,0-3Z"/>
  </g>
  <g>
    <path class="cls-2" d="M18.5,31.5a1,1,0,0,1,0-2h8a1,1,0,0,1,0,2Z"/>
    <path class="cls-2" d="M26.5,30a.5.5,0,0,1,0,1h-8a.5.5,0,0,1,0-1h8m0-1h-8a1.5,1.5,0,0,0,0,3h8a1.5,1.5,0,0,0,0-3Z"/>
  </g>
  <g>
    <path class="cls-2" d="M20.5,26.5a1,1,0,0,1,0-2h6a1,1,0,0,1,0,2Z"/>
    <path class="cls-2" d="M26.5,25a.5.5,0,0,1,0,1h-6a.5.5,0,0,1,0-1h6m0-1h-6a1.5,1.5,0,0,0,0,3h6a1.5,1.5,0,0,0,0-3Z"/>
  </g>
</svg>
