<svg id="Слой_1" data-name="Слой 1" xmlns="http://www.w3.org/2000/svg" width="50" height="33.33" viewBox="0 0 50 33.33">
  <defs>
    <style>
      .cls-1 {
        fill: #ff9f4a;
      }
    </style>
  </defs>
  <g>
    <path class="cls-1" d="M50,3.23V6.67H0V3.23A3.23,3.23,0,0,1,3.23,0H46.77A3.23,3.23,0,0,1,50,3.23Z"/>
    <path class="cls-1" d="M0,11.67V30.1a3.23,3.23,0,0,0,3.23,3.23H46.77A3.23,3.23,0,0,0,50,30.1h0V11.67ZM40,28.33a3.3,3.3,0,0,1-2.5-1.15,3.33,3.33,0,1,1-.34-4.7,3.64,3.64,0,0,1,.34.34A3.32,3.32,0,1,1,40,28.33Z"/>
  </g>
</svg>
