<svg id="Слой_1" data-name="Слой 1" xmlns="http://www.w3.org/2000/svg" width="42.24" height="49.29" viewBox="0 0 42.24 49.29">
  <defs>
    <style>
      .cls-1 {
        fill: #ff9f4a;
      }
    </style>
  </defs>
  <path class="cls-1" d="M39.43,0H2.82A2.82,2.82,0,0,0,0,2.82V46.47a2.82,2.82,0,0,0,2.82,2.82H39.43a2.83,2.83,0,0,0,2.81-2.82V2.82A2.81,2.81,0,0,0,39.44,0ZM35.91,43H6.34a2.12,2.12,0,0,1-.29-4.23,1.41,1.41,0,0,1,.29,0H35.91a2.12,2.12,0,0,1,0,4.23Zm0-8.45H6.34a2.11,2.11,0,0,1,0-4.22H35.91a2.11,2.11,0,1,1,0,4.22Zm0-8.45H6.34a2.11,2.11,0,1,1,0-4.22H35.91a2.11,2.11,0,1,1,0,4.22Zm0-8.45H6.34a2.11,2.11,0,0,1,0-4.22H35.91a2.11,2.11,0,1,1,0,4.22Zm0-8.45H6.34A2.11,2.11,0,0,1,6.34,5H35.91a2.11,2.11,0,1,1,0,4.22Z"/>
</svg>
