<svg id="Слой_1" data-name="Слой 1" xmlns="http://www.w3.org/2000/svg" width="40.38" height="50" viewBox="0 0 40.38 50">
  <defs>
    <style>
      .cls-1 {
        fill: #a00;
      }
    </style>
  </defs>
  <g>
    <path class="cls-1" d="M33.79,5.77H6.6A2.75,2.75,0,0,0,3.85,8.52h0V47.25A2.75,2.75,0,0,0,6.6,50H33.79a2.75,2.75,0,0,0,2.75-2.75V8.52A2.75,2.75,0,0,0,33.79,5.77ZM13.46,43.4a2.75,2.75,0,0,1-2.75,2.75h-.27A2.75,2.75,0,0,1,7.69,43.4V19.08a2.75,2.75,0,0,1,2.73-2.77h.29a2.75,2.75,0,0,1,2.75,2.75Zm9.62,0a2.75,2.75,0,0,1-2.75,2.75h-.27a2.75,2.75,0,0,1-2.75-2.75V19.08A2.75,2.75,0,0,1,20,16.31h.29A2.75,2.75,0,0,1,23,19.06V43.4Zm9.61,0a2.75,2.75,0,0,1-2.75,2.75h-.27a2.75,2.75,0,0,1-2.75-2.75V19.08a2.75,2.75,0,0,1,2.73-2.77h.29a2.75,2.75,0,0,1,2.75,2.75Z"/>
    <rect class="cls-1" y="3.85" width="40.38" height="5.77" rx="1.43"/>
    <rect class="cls-1" x="12.5" width="15.38" height="5.77" rx="1.43"/>
  </g>
</svg>
