<svg id="Слой_1" data-name="Слой 1" xmlns="http://www.w3.org/2000/svg" width="48.1" height="50.07" viewBox="0 0 48.1 50.07">
  <defs>
    <style>
      .cls-1 {
        fill: #ff9f4a;
      }
    </style>
  </defs>
  <g>
    <path class="cls-1" d="M48.1,0C42.86,3.05,12.7,20.8,8.87,32.21c-.51,1.52-1.79,5.35-.07,7.08s5.57.45,7.08-.06C27.29,35.4,45.05,5.24,48.1,0Z"/>
    <circle class="cls-1" cx="4.7" cy="43.39" r="4.34"/>
    <path class="cls-1" d="M7.33,46.87.87,50a.58.58,0,0,1-.79-.25h0A.71.71,0,0,1,0,49.39l.53-7.14a.61.61,0,0,1,.62-.6h0a.57.57,0,0,1,.38.14l5.92,4a.61.61,0,0,1,.18.84A.64.64,0,0,1,7.33,46.87Z"/>
  </g>
</svg>
