<svg width="23" height="35" viewBox="0 0 23 35" fill="none" xmlns="http://www.w3.org/2000/svg">
<path d="M22.92 17.5V32.9954C19.3763 34.3095 15.5515 34.9877 11.685 34.9877C7.81854 34.9877 3.9937 34.3095 0.450012 32.9954L0.450012 17.5C0.450012 16.2342 1.04185 15.0202 2.09534 14.1252C3.14883 13.2301 4.57766 12.7273 6.06751 12.7273H17.3025C18.7924 12.7273 20.2212 13.2301 21.2747 14.1252C22.3282 15.0202 22.92 16.2342 22.92 17.5Z" fill="#F9A03F"/>
<path d="M11.685 11.1364C15.3045 11.1364 18.2388 8.6434 18.2388 5.56818C18.2388 2.49296 15.3045 0 11.685 0C8.06547 0 5.13126 2.49296 5.13126 5.56818C5.13126 8.6434 8.06547 11.1364 11.685 11.1364Z" fill="#F9A03F"/>
</svg>
