<svg width="33" height="20" viewBox="0 0 33 20" fill="none" xmlns="http://www.w3.org/2000/svg">
<path d="M32.1 1.94V4H0V1.94C0 1.42548 0.2187 0.932033 0.607988 0.568213C0.997276 0.204392 1.52526 0 2.0758 0L30.0242 0C30.2968 0 30.5667 0.0501796 30.8186 0.147674C31.0704 0.245168 31.2993 0.388067 31.492 0.568213C31.6848 0.748358 31.8377 0.962223 31.942 1.19759C32.0463 1.43297 32.1 1.68524 32.1 1.94Z" fill="#F9A03F"/>
<path d="M0 7V18.06C0 18.5745 0.2187 19.068 0.607988 19.4318C0.997276 19.7956 1.52526 20 2.0758 20H30.0242C30.2968 20 30.5667 19.9498 30.8186 19.8523C31.0704 19.7548 31.2993 19.6119 31.492 19.4318C31.6848 19.2516 31.8377 19.0378 31.942 18.8024C32.0463 18.567 32.1 18.3148 32.1 18.06V7H0ZM25.68 17C25.3753 16.9984 25.0745 16.936 24.7978 16.817C24.521 16.698 24.2746 16.5252 24.075 16.31C23.8754 16.5252 23.629 16.698 23.3522 16.817C23.0755 16.936 22.7747 16.9984 22.47 17C21.9024 17 21.3581 16.7893 20.9568 16.4142C20.5555 16.0391 20.33 15.5304 20.33 15C20.33 14.4696 20.5555 13.9609 20.9568 13.5858C21.3581 13.2107 21.9024 13 22.47 13C22.7747 13.0016 23.0755 13.064 23.3522 13.183C23.629 13.302 23.8754 13.4748 24.075 13.69C24.2746 13.4748 24.521 13.302 24.7978 13.183C25.0745 13.064 25.3753 13.0016 25.68 13C26.2476 13 26.7919 13.2107 27.1932 13.5858C27.5945 13.9609 27.82 14.4696 27.82 15C27.82 15.5304 27.5945 16.0391 27.1932 16.4142C26.7919 16.7893 26.2476 17 25.68 17Z" fill="#F9A03F"/>
</svg>
