<svg width="29" height="35" viewBox="0 0 29 35" fill="none" xmlns="http://www.w3.org/2000/svg">
<path d="M28.5145 19.691C27.2838 14.9402 22.9841 11.5508 20.8305 9.85609C18.1141 7.72886 16.043 6.89215 15.3451 4.39621C14.6848 2.02789 15.8254 0.255202 15.3451 0.0212071C14.4897 -0.382966 9.52211 4.49548 8.75672 10.9481C8.25396 15.5996 10.1149 18.9535 8.77923 19.691C7.74369 20.2653 5.58257 18.7975 4.39695 17.507C2.79862 15.7698 2.85115 14.2311 2.19831 14.224C1.16277 14.224 -0.0528577 18.1239 0.0071735 21.8749C-0.0168719 23.7457 0.355636 25.6022 1.10274 27.3348C3.43645 32.3763 9.72472 35.2268 15.3601 34.9857C16.4557 34.9361 24.0797 34.4965 27.4264 28.4339C28.8252 25.7198 29.2087 22.6377 28.5145 19.691V19.691ZM17.7839 31.1993C17.459 31.7035 17.0046 32.1219 16.4628 32.4157C15.921 32.7095 15.3094 32.8691 14.6848 32.8798C13.9374 32.9244 13.1924 32.7624 12.5408 32.4136C11.8893 32.0648 11.3592 31.5443 11.0154 30.9157C10.8222 30.4656 10.7278 29.9831 10.7377 29.4975C10.7377 28.5402 11.0304 27.5334 11.3005 27.5334C11.5707 27.5334 11.4506 27.9304 11.8633 28.3772C12.171 28.7104 12.7263 29.0862 12.9889 28.9373C13.2515 28.7884 12.8463 27.8879 12.9889 26.6967C13.184 25.0374 14.4897 23.7823 14.6848 23.8603C14.8799 23.9383 14.5122 24.378 14.6848 24.9807C14.8574 25.5834 15.3902 25.8316 16.088 26.3988C17.01 27.0236 17.7005 27.9068 18.0615 28.9231C18.247 29.6895 18.1491 30.4929 17.7839 31.1993V31.1993Z" fill="#F9A03F"/>
</svg>
