<svg width="28" height="30" viewBox="0 0 28 30" fill="none" xmlns="http://www.w3.org/2000/svg">
<path d="M25.9653 0H1.85467C1.36278 0 0.891037 0.180612 0.543219 0.502103C0.195402 0.823594 0 1.25963 0 1.71429L0 28.2857C0 28.7404 0.195402 29.1764 0.543219 29.4979C0.891037 29.8194 1.36278 30 1.85467 30H25.9653C26.4572 30 26.929 29.8194 27.2768 29.4979C27.6246 29.1764 27.82 28.7404 27.82 28.2857V1.71429C27.82 1.25963 27.6246 0.823594 27.2768 0.502103C26.929 0.180612 26.4572 0 25.9653 0V0ZM23.647 26.1429H4.173C3.80408 26.1429 3.45028 26.0074 3.18941 25.7663C2.92855 25.5252 2.782 25.1981 2.782 24.8571C2.782 24.5161 2.92855 24.1891 3.18941 23.948C3.45028 23.7069 3.80408 23.5714 4.173 23.5714H23.647C24.0159 23.5714 24.3697 23.7069 24.6306 23.948C24.8914 24.1891 25.038 24.5161 25.038 24.8571C25.038 25.1981 24.8914 25.5252 24.6306 25.7663C24.3697 26.0074 24.0159 26.1429 23.647 26.1429ZM23.647 21H4.173C3.80408 21 3.45028 20.8645 3.18941 20.6234C2.92855 20.3823 2.782 20.0553 2.782 19.7143C2.782 19.3733 2.92855 19.0463 3.18941 18.8051C3.45028 18.564 3.80408 18.4286 4.173 18.4286H23.647C24.0159 18.4286 24.3697 18.564 24.6306 18.8051C24.8914 19.0463 25.038 19.3733 25.038 19.7143C25.038 20.0553 24.8914 20.3823 24.6306 20.6234C24.3697 20.8645 24.0159 21 23.647 21ZM23.647 15.8571H4.173C3.80408 15.8571 3.45028 15.7217 3.18941 15.4806C2.92855 15.2394 2.782 14.9124 2.782 14.5714C2.782 14.2304 2.92855 13.9034 3.18941 13.6623C3.45028 13.4212 3.80408 13.2857 4.173 13.2857H23.647C24.0159 13.2857 24.3697 13.4212 24.6306 13.6623C24.8914 13.9034 25.038 14.2304 25.038 14.5714C25.038 14.9124 24.8914 15.2394 24.6306 15.4806C24.3697 15.7217 24.0159 15.8571 23.647 15.8571ZM23.647 10.7143H4.173C3.80408 10.7143 3.45028 10.5788 3.18941 10.3377C2.92855 10.0966 2.782 9.76956 2.782 9.42857C2.782 9.08758 2.92855 8.76055 3.18941 8.51943C3.45028 8.27832 3.80408 8.14286 4.173 8.14286H23.647C24.0159 8.14286 24.3697 8.27832 24.6306 8.51943C24.8914 8.76055 25.038 9.08758 25.038 9.42857C25.038 9.76956 24.8914 10.0966 24.6306 10.3377C24.3697 10.5788 24.0159 10.7143 23.647 10.7143ZM23.647 5.57143H4.173C3.80408 5.57143 3.45028 5.43597 3.18941 5.19485C2.92855 4.95373 2.782 4.62671 2.782 4.28571C2.782 3.94472 2.92855 3.6177 3.18941 3.37658C3.45028 3.13546 3.80408 3 4.173 3H23.647C24.0159 3 24.3697 3.13546 24.6306 3.37658C24.8914 3.6177 25.038 3.94472 25.038 4.28571C25.038 4.62671 24.8914 4.95373 24.6306 5.19485C24.3697 5.43597 24.0159 5.57143 23.647 5.57143Z" fill="#F9A03F"/>
</svg>
