<svg width="33" height="30" viewBox="0 0 33 30" fill="none" xmlns="http://www.w3.org/2000/svg">
<path d="M2.29285 15.0214C2.29285 18.4265 3.74226 21.6921 6.32223 24.0998C8.90219 26.5075 12.4014 27.8602 16.05 27.8602" stroke="#F9A03F" stroke-width="5" stroke-miterlimit="10"/>
<path d="M16.05 2.18259C12.4014 2.18259 8.90219 3.53524 6.32223 5.94298C3.74226 8.35073 2.29285 11.6163 2.29285 15.0214" stroke="#F9A03F" stroke-width="5" stroke-miterlimit="10"/>
<path d="M16.05 27.8602C19.6986 27.8602 23.1978 26.5075 25.7778 24.0998C28.3577 21.6921 29.8071 18.4265 29.8071 15.0214" stroke="#F9A03F" stroke-width="5" stroke-miterlimit="10"/>
<path d="M29.6696 13.6947C29.6708 12.177 29.3513 10.6739 28.7295 9.27152C28.1077 7.8691 27.1958 6.59485 26.0458 5.52165C24.8959 4.44845 23.5305 3.59737 22.0277 3.01708C20.525 2.43679 18.9144 2.13868 17.2881 2.1398" stroke="#F9A03F" stroke-width="5" stroke-miterlimit="10"/>
</svg>
