<svg id="Слой_1" data-name="Слой 1" xmlns="http://www.w3.org/2000/svg" width="42.08" height="49.16" viewBox="0 0 42.08 49.16">
  <defs>
    <style>
      .cls-1 {
        fill: #f9a03f;
      }
    </style>
  </defs>
  <g>
    <path class="cls-1" d="M21.5,12.21A13,13,0,0,1,21.5,37Z"/>
    <path class="cls-1" d="M25.5,20.46a9,9,0,0,1,0,8.24V20.46m-8-12.88v34a17,17,0,0,0,0-34Z"/>
  </g>
  <path class="cls-1" d="M35.33,7.59,33.9,12.93a.68.68,0,0,1-1.14.3L28.85,9.32a.68.68,0,0,1,.3-1.14l5.34-1.43A.69.69,0,0,1,35.33,7.59Z"/>
  <path class="cls-1" d="M34.49,42.41,29.15,41a.68.68,0,0,1-.3-1.14l3.91-3.91a.68.68,0,0,1,1.14.3l1.43,5.34A.69.69,0,0,1,34.49,42.41Z"/>
  <path class="cls-1" d="M41.73,25.17,37,27.93a.68.68,0,0,1-1-.59V21.82a.68.68,0,0,1,1-.59L41.73,24A.68.68,0,0,1,41.73,25.17Z"/>
  <path class="cls-1" d="M20.26,6.16H17.5V0a.68.68,0,0,1,.59.35l2.76,4.78A.68.68,0,0,1,20.26,6.16Z"/>
  <path class="cls-1" d="M20.85,44l-2.76,4.78a.68.68,0,0,1-.59.35V43h2.76A.68.68,0,0,1,20.85,44Z"/>
  <path class="cls-1" d="M17.5,11.08A13.5,13.5,0,1,1,4,24.58a13.52,13.52,0,0,1,13.5-13.5m0-4A17.5,17.5,0,1,0,35,24.58,17.51,17.51,0,0,0,17.5,7.08Z"/>
</svg>
