<svg id="Слой_1" data-name="Слой 1" xmlns="http://www.w3.org/2000/svg" width="49.15" height="49.15" viewBox="0 0 49.15 49.15">
  <defs>
    <style>
      .cls-1 {
        fill: #f9a03f;
      }
    </style>
  </defs>
  <g>
    <circle class="cls-1" cx="24.58" cy="24.58" r="17"/>
    <path class="cls-1" d="M.34,23.79,5.13,21a.68.68,0,0,1,1,.59v5.53a.68.68,0,0,1-1,.59L.34,25A.68.68,0,0,1,.34,23.79Z"/>
    <path class="cls-1" d="M7.58,6.75l5.34,1.43a.68.68,0,0,1,.31,1.14L9.32,13.23a.68.68,0,0,1-1.14-.31L6.75,7.58A.68.68,0,0,1,7.58,6.75Z"/>
    <path class="cls-1" d="M42.4,7.58,41,12.92a.68.68,0,0,1-1.14.31L35.92,9.32a.68.68,0,0,1,.31-1.14l5.34-1.43A.67.67,0,0,1,42.4,7.58Z"/>
    <path class="cls-1" d="M6.75,41.57l1.43-5.34a.68.68,0,0,1,1.14-.31l3.91,3.91A.68.68,0,0,1,12.92,41L7.58,42.4A.67.67,0,0,1,6.75,41.57Z"/>
    <path class="cls-1" d="M41.57,42.4,36.23,41a.68.68,0,0,1-.31-1.14l3.91-3.91a.68.68,0,0,1,1.14.31l1.43,5.34A.67.67,0,0,1,41.57,42.4Z"/>
    <path class="cls-1" d="M48.81,25.17,44,27.93a.68.68,0,0,1-1-.59V21.81a.68.68,0,0,1,1-.59L48.81,24A.69.69,0,0,1,48.81,25.17Z"/>
    <path class="cls-1" d="M24.89.34l2.77,4.79a.68.68,0,0,1-.59,1H21.54a.68.68,0,0,1-.59-1L23.71.34A.68.68,0,0,1,24.89.34Z"/>
    <path class="cls-1" d="M24,48.81,21.22,44a.68.68,0,0,1,.59-1h5.53a.68.68,0,0,1,.59,1l-2.76,4.79A.69.69,0,0,1,24,48.81Z"/>
  </g>
</svg>
