<?xml version="1.0" encoding="UTF-8"?>
<svg id="_лой_1" data-name="Слой 1" xmlns="http://www.w3.org/2000/svg" width="50" height="50" viewBox="0 0 50 50">
  <defs>
    <style>
      .cls-1 {
        fill: #ff9f4a;
      }

      .cls-2 {
        fill: #1b1b1b;
      }
    </style>
  </defs>
  <rect class="cls-2" width="50" height="50" rx="12.78" ry="12.78"/>
  <path class="cls-1" d="M37.41,27.05c-1.09-4.43-4.83-7.59-6.76-9.16-2.42-1.98-4.21-2.76-4.83-5.09-.58-2.21,.43-3.86,0-4.07-.75-.38-5.12,4.17-5.8,10.18-.44,4.33,1.19,7.46,0,8.15-.91,.53-2.81-.81-3.86-2.04-1.4-1.61-1.36-3.05-1.93-3.06-.91,0-1.98,3.63-1.93,7.13-.02,1.74,.31,3.47,.97,5.09,2.09,4.69,7.61,7.35,12.55,7.13,.97-.05,7.67-.45,10.62-6.1,1.24-2.53,1.58-5.4,.97-8.14Zm-9.45,10.72c-.58,.96-1.61,1.55-2.73,1.57-1.34,.08-2.61-.64-3.22-1.84-.17-.42-.25-.87-.24-1.32,0-.89,.25-1.83,.49-1.83s.13,.37,.5,.81,.76,.66,.99,.52-.13-.97,0-2.09c.17-1.55,1.32-2.71,1.49-2.64s-.15,.48,0,1.05,.62,.81,1.23,1.32c.82,.57,1.43,1.39,1.76,2.34,.15,.72,.06,1.46-.27,2.12Z"/>
</svg>