<svg id="Слой_1" data-name="Слой 1" xmlns="http://www.w3.org/2000/svg" width="50" height="50" viewBox="0 0 50 50">
  <defs>
    <style>
      .cls-1 {
        fill: #1b1b1b;
      }

      .cls-2 {
        fill: #ff9f4a;
      }
    </style>
  </defs>
  <g>
    <rect class="cls-1" width="50" height="50" rx="12.78"/>
    <path class="cls-2" d="M40.4,27.54c-1.35-5.5-6-9.42-8.4-11.38-3-2.46-5.23-3.43-6-6.32-.72-2.74.53-4.79,0-5.06-.93-.47-6.36,5.18-7.2,12.64-.55,5.38,1.48,9.26,0,10.12-1.13.66-3.49-1-4.79-2.53-1.74-2-1.69-3.79-2.4-3.8-1.13,0-2.46,4.51-2.4,8.85a16.29,16.29,0,0,0,1.2,6.32C13,42.21,19.86,45.51,26,45.23c1.2-.06,9.53-.56,13.19-7.58A15.42,15.42,0,0,0,40.4,27.54ZM28.67,40.85a4.06,4.06,0,0,1-3.39,1.95,4.22,4.22,0,0,1-4-2.28,4,4,0,0,1-.3-1.64c0-1.11.31-2.27.61-2.27s.16.46.62,1,.94.82,1.23.64-.16-1.21,0-2.59c.21-1.92,1.64-3.37,1.85-3.28s-.19.6,0,1.3.77,1,1.53,1.64A5.83,5.83,0,0,1,29,38.22,4,4,0,0,1,28.67,40.85Z"/>
  </g>
</svg>
