<svg id="Слой_1" data-name="Слой 1" xmlns="http://www.w3.org/2000/svg" width="50" height="50" viewBox="0 0 50 50">
  <defs>
    <style>
      .cls-1 {
        fill: #141004;
      }

      .cls-2 {
        fill: #f9a03f;
      }
    </style>
  </defs>
  <rect class="cls-1" width="50" height="50"/>
  <path class="cls-2" d="M37.74,27.1c-1.11-4.55-5-7.8-7-9.42-2.46-2-4.33-2.84-5-5.23s.43-4,0-4.18c-.77-.39-5.27,4.28-6,10.46-.46,4.45,1.23,7.66,0,8.37-.94.55-2.89-.86-4-2.09-1.44-1.67-1.39-3.14-2-3.15-.93,0-2,3.74-2,7.33a13.58,13.58,0,0,0,1,5.23c2.11,4.82,7.8,7.55,12.9,7.32,1,0,7.89-.47,10.92-6.27A12.74,12.74,0,0,0,37.74,27.1Zm-9.7,11a3.37,3.37,0,0,1-2.81,1.61,3.14,3.14,0,0,1-3.57-3.24c0-.92.27-1.88.51-1.88s.14.38.51.81.78.67,1,.53-.13-1,0-2.14a3.7,3.7,0,0,1,1.53-2.72c.18.08-.15.5,0,1.07s.64.82,1.27,1.36a4.91,4.91,0,0,1,1.79,2.42A3.35,3.35,0,0,1,28,38.12Z"/>
</svg>
